<svg xmlns="http://www.w3.org/2000/svg" viewBox="0 0 64 64">
  <rect width="64" height="64" rx="16" fill="#0f4c5c"/>
  <circle cx="18" cy="18" r="6" fill="#7dd3c7" opacity="0.9"/>
  <circle cx="46" cy="17" r="4" fill="#c8f5ef" opacity="0.9"/>
  <circle cx="49" cy="45" r="7" fill="#7dd3c7" opacity="0.8"/>
  <path d="M24 19h10c7.2 0 12 4 12 10 0 3.3-1.7 6.2-4.7 7.8 3.8 1.4 6.2 4.6 6.2 9.1 0 6.9-5.4 11.1-13.8 11.1H24V19Zm9.3 14.1c3.6 0 5.8-1.4 5.8-4.2 0-2.6-2-4-5.4-4h-2.9v8.2h2.5Zm0.8 18.1c4.1 0 6.5-1.8 6.5-4.9 0-3.2-2.4-4.9-6.7-4.9h-3.1v9.8h3.3Z" fill="#ffffff"/>
  <circle cx="21" cy="44" r="3" fill="#c8f5ef" opacity="0.95"/>
</svg>